<?xml version="1.0" encoding="UTF-8"?>
<svg width="4003px" height="1040px" viewBox="0 0 4003 1040" version="1.1" xmlns="http://www.w3.org/2000/svg" xmlns:xlink="http://www.w3.org/1999/xlink">
    <title>paghiper</title>
    <g id="Page-1" stroke="none" stroke-width="1" fill="none" fill-rule="evenodd">
        <g id="paghiper" transform="translate(0, -0)" fill-rule="nonzero">
            <path d="M822.996718,823.572744 L629.451918,823.572744 C621.963578,823.572744 615.051263,819.545011 611.595106,812.640327 L418.626333,427.128774 C415.170175,420.79948 420.354411,412.744015 427.842752,412.744015 L605.258818,412.744015 C612.747159,412.744015 619.659473,416.771747 623.11563,423.676432 L720.464056,618.158379 L823.572744,823.572744 L822.996718,823.572744 Z" id="Path" fill="#26D07C"></path>
            <path d="M823.068216,0 L121.1372,0 C114.227297,0 107.893219,3.45296198 104.438267,9.78339227 C7.69962007,168.619643 -138.560001,654.911788 290.429832,1037.61507 C295.61226,1041.64353 303.097988,1040.49254 305.977115,1034.73761 L388.895955,868.995431 C392.926732,861.514013 391.199256,852.306115 385.441003,845.975684 C216.148371,675.62956 163.748271,426.440804 241.484684,206.026731 L823.644041,206.026731 C924.98929,206.026731 1029.21367,285.444857 1029.21367,411.477969 C1029.21367,657.789257 720.571316,616.929206 720.571316,616.929206 L823.644041,822.380444 C1062.03571,822.380444 1235.35912,627.288092 1235.35912,410.902475 C1235.35912,195.667845 1062.61153,0 823.644041,0" id="Path" fill="#0957C3"></path>
            <path d="M2979.58412,373.941021 C2964.53081,373.941021 2951.98639,386.485444 2951.98639,401.538752 C2951.98639,416.59206 2964.53081,429.136484 2979.58412,429.136484 C2994.63743,429.136484 3007.18185,416.59206 3007.18185,401.538752 C3007.18185,386.485444 2994.63743,373.941021 2979.58412,373.941021" id="Path" fill="#26D07C"></path>
            <path d="M3836.78639,541.095463 L3836.78639,706.786389 L3892.19093,706.786389 L3892.19093,541.095463 C3892.19093,480.2166 3942.55869,430.634846 4003,430.634846 L4003,375.404537 C3911.70843,375.404537 3836.78639,450.718594 3836.78639,541.095463" id="Path" fill="#0957C3"></path>
            <path d="M3615.5,376 C3524.60038,376 3450,451.226396 3450,541.498071 C3450,631.769746 3525.22727,707.623029 3615.5,706.996142 L3725.83333,706.996142 L3725.83333,651.830118 L3615.5,651.830118 C3575.37879,651.830118 3539.64583,630.515973 3520.21212,596.664095 L3771.59659,596.664095 C3777.86553,579.111269 3781,560.931557 3781,541.498071 C3781,451.853283 3705.77273,376 3615.5,376 M3505,541 C3505,480.375 3555.22727,431 3615.5,431 C3675.77273,431 3726,481 3726,541 L3505,541 L3505,541 Z" id="Shape" fill="#0957C3"></path>
            <path d="M3228.5,375 C3137.60038,375 3063,449.825758 3063,541 L3063,873 L3118.16667,873 L3118.16667,664.871212 C3148.25758,691.909091 3187.75189,707 3228.5,707 C3317.51894,707 3394,630.916667 3394,541 C3394,451.083333 3318.77273,375 3228.5,375 M3228.5,652 C3168.22727,652 3118,601.772727 3118,541.5 C3118,481.227273 3168.22727,431 3228.5,431 C3288.77273,431 3339,481.227273 3339,541.5 C3339,601.772727 3288.77273,652 3228.5,652" id="Shape" fill="#0957C3"></path>
            <rect id="Rectangle" fill="#0957C3" x="2952.40454" y="485.168242" width="55.4045369" height="220.572779"></rect>
            <polygon id="Path" fill="#0957C3" points="2841.76969 485.765595 2620.84846 485.765595 2620.84846 320 2565.61815 320 2565.61815 706.786389 2620.84846 706.786389 2620.84846 541.020794 2841.76969 541.020794 2841.76969 706.786389 2897 706.786389 2897 320 2841.76969 320"></polygon>
            <path d="M2500.20683,485.666667 C2476.96774,420.272727 2413.53131,375 2343.81404,375 C2252.74194,375 2178,450.454545 2178,541 C2178,588.159091 2198.09867,633.431818 2233.27135,664.871212 C2263.41935,691.909091 2302.98861,707 2343.81404,707 C2384.63947,707 2424.20873,691.909091 2454.35674,664.871212 C2454.35674,683.734848 2455.6129,717.060606 2450.58824,734.666667 C2438.02657,782.454545 2393.43264,817.666667 2343.18596,817.666667 L2343.18596,873 C2384.63947,873 2423.58065,857.909091 2453.72865,830.871212 C2474.45541,812.636364 2490.1575,788.742424 2499.57875,762.333333 C2505.85958,744.727273 2509,726.492424 2509,707 L2509,541 C2509,521.507576 2505.85958,502.643939 2500.20683,485.666667 M2343.5,652 C2282.59943,652 2233,601.772727 2233,541.5 C2233,481.227273 2283.22727,431 2343.5,431 C2403.77273,431 2454,481.227273 2454,541.5 C2454,601.144886 2403.77273,652 2343.5,652" id="Shape" fill="#0957C3"></path>
            <path d="M1958.5,376 C1867.60038,376 1793,450.600379 1793,541.5 C1793,589.143939 1813.6875,633.653409 1848.16667,664.998106 C1878.25758,691.954545 1917.75189,707 1958.5,707 C1999.24811,707 2038.74242,691.954545 2068.83333,664.998106 L2068.83333,707 L2124,707 L2124,541.5 C2124,451.227273 2048.77273,376 1958.5,376 M1958.5,652 C1897.59943,652 1848,601.772727 1848,541.5 C1848,481.227273 1898.22727,431 1958.5,431 C2018.77273,431 2069,481.227273 2069,541.5 C2069,601.772727 2018.77273,652 1958.5,652" id="Shape" fill="#0957C3"></path>
            <path d="M1680.83333,362.092532 C1665.16098,347.642857 1646.35417,336.334416 1625.66667,329.423701 C1608.74053,323.141234 1589.93371,320 1570.5,320 L1405,320 L1405,707 L1460.16667,707 L1460.16667,651.714286 L1570.5,651.714286 C1589.93371,651.714286 1608.11364,648.573052 1625.66667,642.290584 C1646.35417,634.751623 1665.16098,624.071429 1680.83333,609.621753 C1701.52083,591.402597 1717.19318,567.529221 1726.59659,541.142857 C1732.86553,523.551948 1736,505.332792 1736,485.857143 C1736,466.381494 1732.86553,448.162338 1726.59659,430.571429 C1717.19318,404.185065 1701.52083,380.939935 1680.83333,362.092532 M1665.93182,540.75 C1646.46875,574.653409 1610.05398,596 1570.5,596 L1460,596 L1460,375 L1570.5,375 C1610.68182,375 1646.46875,396.346591 1665.93182,430.25 C1675.34943,446.573864 1681,465.409091 1681,485.5 C1681,505.590909 1675.34943,524.426136 1665.93182,540.75" id="Shape" fill="#0957C3"></path>
        </g>
    </g>
</svg>